<svg id="Layer_1" data-name="Layer 1" xmlns="http://www.w3.org/2000/svg" viewBox="0 0 306.24 41.05"><defs><style>.cls-1{fill:#fff;}</style></defs><title>Untitled-3</title><path class="cls-1" d="M441.91,294.5a16.59,16.59,0,0,0,10.81,3.9c2.84,0,5-1.38,5-3.33,0-5.93-19.1-3.82-19.1-16.5,0-7.56,7.31-12.27,15.11-12.27,5.13,0,10.73,1.95,13.34,4l-5,7.64a13.32,13.32,0,0,0-7.56-2.68c-2.93,0-5.37,1.14-5.37,3.17,0,5.12,19.11,3.09,19.11,16.74,0,7.56-7.4,12.2-15.69,12.2a27.22,27.22,0,0,1-15.85-5.29Z" transform="translate(-436.79 -266.3)"/><path class="cls-1" d="M515.46,267.11v39.42H505.3v-3.17a15.63,15.63,0,0,1-10.64,4A17.26,17.26,0,0,1,481.24,301c-2.52-3.08-4-7.15-4-13V267.11h10.57v21.3c0,3.57.73,5.36,1.95,6.74a7.9,7.9,0,0,0,5.93,2.44c4.47,0,7.72-3,9.19-4.88v-25.6Z" transform="translate(-436.79 -266.3)"/><path class="cls-1" d="M527.65,306.53V267.11h10.16v3.17a17.39,17.39,0,0,1,11.14-4,17.76,17.76,0,0,1,13.65,6.34c2.6,3.09,4.07,7.07,4.07,13.82v20.07H556.1V285.64c0-3.9-.89-5.93-2.36-7.39a8.26,8.26,0,0,0-5.93-2.2,12.59,12.59,0,0,0-9.59,4.88v25.6Z" transform="translate(-436.79 -266.3)"/><path class="cls-1" d="M602,276.46a14.41,14.41,0,0,0-3.82-.41,11.69,11.69,0,0,0-9.59,5.69v24.79H578V267.11H588.2v4c2.36-2.92,6.67-4.79,11.46-4.79a21.87,21.87,0,0,1,3.58.32Z" transform="translate(-436.79 -266.3)"/><path class="cls-1" d="M621.93,306.53H611.36V267.11h10.57Z" transform="translate(-436.79 -266.3)"/><path class="cls-1" d="M635.34,294.5a16.59,16.59,0,0,0,10.81,3.9c2.84,0,5-1.38,5-3.33,0-5.93-19.1-3.82-19.1-16.5,0-7.56,7.31-12.27,15.12-12.27,5.12,0,10.73,1.95,13.33,4l-5,7.64a13.32,13.32,0,0,0-7.56-2.68c-2.93,0-5.37,1.14-5.37,3.17,0,5.12,19.11,3.09,19.11,16.74,0,7.56-7.4,12.2-15.69,12.2a27.22,27.22,0,0,1-15.85-5.29Z" transform="translate(-436.79 -266.3)"/><path class="cls-1" d="M705.08,300.27c-3.83,4.56-10.08,7.08-16.18,7.08-11.79,0-20.65-8.13-20.65-20.49,0-11,7.48-20.56,19.19-20.56,10.89,0,18.61,9.18,18.61,20.16a17.54,17.54,0,0,1-.24,3H678.49a10.36,10.36,0,0,0,10.65,9.35,14,14,0,0,0,9.92-4.55Zm-9.84-18.53a7.87,7.87,0,0,0-7.8-6.91,8.56,8.56,0,0,0-8.46,6.91Z" transform="translate(-436.79 -266.3)"/><path class="cls-1" d="M716.61,294.5a16.59,16.59,0,0,0,10.81,3.9c2.85,0,5-1.38,5-3.33,0-5.93-19.1-3.82-19.1-16.5,0-7.56,7.32-12.27,15.12-12.27,5.12,0,10.73,1.95,13.33,4l-5,7.64a13.3,13.3,0,0,0-7.56-2.68c-2.92,0-5.36,1.14-5.36,3.17,0,5.12,19.1,3.09,19.1,16.74,0,7.56-7.4,12.2-15.69,12.2a27.22,27.22,0,0,1-15.85-5.29Z" transform="translate(-436.79 -266.3)"/></svg>